<mxfile host="app.diagrams.net" modified="2024-04-05T04:54:45.437Z" agent="Mozilla/5.0 (Linux; Android 10; K) AppleWebKit/537.36 (KHTML, like Gecko) Chrome/123.0.0.0 Mobile Safari/537.36" version="24.2.2" etag="VDr_ln0wqpARmoT8x8Dt" type="github">
  <diagram name="Page-1" id="TtcjN7tgB_QiJHJyEUWr">
    <mxGraphModel>
      <root>
        <mxCell id="0" />
        <mxCell id="1" parent="0" />
      </root>
    </mxGraphModel>
  </diagram>
</mxfile>
